<svg width="24" height="24" viewBox="0 0 24 24" fill="none" xmlns="http://www.w3.org/2000/svg">
<path opacity="0.2" d="M21.7378 8.38312L19.6097 18.1331C19.579 18.3068 19.4882 18.4641 19.3531 18.5774C19.218 18.6907 19.0473 18.7528 18.8709 18.7528H5.12906C4.95272 18.7528 4.78201 18.6907 4.6469 18.5774C4.5118 18.4641 4.42095 18.3068 4.39031 18.1331L2.26219 8.38312C2.23464 8.22243 2.26021 8.05715 2.33502 7.91229C2.40982 7.76743 2.5298 7.65089 2.67676 7.58032C2.82373 7.50975 2.98969 7.48899 3.14952 7.52119C3.30934 7.55338 3.45432 7.63678 3.5625 7.75875L7.5 12L11.3194 3.43594C11.3795 3.30605 11.4755 3.19608 11.5961 3.119C11.7167 3.04193 11.8569 3.00098 12 3.00098C12.1431 3.00098 12.2833 3.04193 12.4039 3.119C12.5245 3.19608 12.6205 3.30605 12.6806 3.43594L16.5 12L20.4375 7.75875C20.5457 7.63678 20.6907 7.55338 20.8505 7.52119C21.0103 7.48899 21.1763 7.50975 21.3232 7.58032C21.4702 7.65089 21.5902 7.76743 21.665 7.91229C21.7398 8.05715 21.7654 8.22243 21.7378 8.38312Z" fill="black"/>
<path d="M21.6469 6.90001C21.3535 6.75623 21.021 6.71312 20.7007 6.77735C20.3804 6.84158 20.0902 7.00956 19.875 7.25532L16.7184 10.6575L13.3622 3.13032C13.362 3.1272 13.362 3.12407 13.3622 3.12094C13.2422 2.86064 13.0501 2.64018 12.8087 2.48565C12.5673 2.33112 12.2866 2.24899 12 2.24899C11.7134 2.24899 11.4327 2.33112 11.1913 2.48565C10.9499 2.64018 10.7578 2.86064 10.6378 3.12094C10.638 3.12407 10.638 3.1272 10.6378 3.13032L7.28156 10.6575L4.125 7.25532C3.90841 7.00952 3.61729 6.84138 3.29614 6.77661C2.975 6.71184 2.64147 6.75399 2.34654 6.89662C2.0516 7.03926 1.81147 7.27453 1.66284 7.56649C1.5142 7.85845 1.46524 8.19104 1.52344 8.51344C1.52344 8.52376 1.52344 8.53313 1.53 8.54344L3.65625 18.2813C3.7217 18.6242 3.9047 18.9335 4.17372 19.1559C4.44273 19.3784 4.78091 19.5001 5.13 19.5H18.8709C19.2199 19.4999 19.5578 19.3781 19.8266 19.1556C20.0955 18.9332 20.2783 18.624 20.3438 18.2813L22.47 8.54344C22.47 8.53313 22.47 8.52376 22.4766 8.51344C22.5359 8.19064 22.4866 7.85728 22.3365 7.5654C22.1864 7.27353 21.9439 7.03955 21.6469 6.90001ZM18.8766 17.97L18.8709 18H5.12906L5.12344 17.97L3 8.25001L3.01312 8.26501L6.95062 12.5063C7.03494 12.5974 7.14055 12.6661 7.25798 12.7064C7.37542 12.7466 7.501 12.7571 7.62347 12.7368C7.74594 12.7165 7.86147 12.6662 7.95969 12.5903C8.05792 12.5144 8.13576 12.4153 8.18625 12.3019L12 3.75001L15.8147 12.3047C15.8652 12.4181 15.943 12.5172 16.0412 12.5931C16.1395 12.669 16.255 12.7194 16.3775 12.7396C16.4999 12.7599 16.6255 12.7494 16.743 12.7092C16.8604 12.6689 16.966 12.6002 17.0503 12.5091L20.9878 8.26782L21 8.25001L18.8766 17.97Z" fill="black"/>
</svg>
