<svg width="24" height="24" viewBox="0 0 24 24" fill="none" xmlns="http://www.w3.org/2000/svg">
<path d="M22.4766 8.51344C22.4766 8.52376 22.4766 8.53313 22.47 8.54344L20.3438 18.2813C20.2783 18.6242 20.0953 18.9335 19.8263 19.1559C19.5573 19.3784 19.2191 19.5001 18.87 19.5H5.12906C4.78014 19.4999 4.44218 19.3781 4.17336 19.1556C3.90454 18.9332 3.72167 18.624 3.65625 18.2813L1.53 8.54344C1.53 8.53313 1.52531 8.52376 1.52344 8.51344C1.46525 8.19104 1.51421 7.85845 1.66284 7.56649C1.81147 7.27453 2.0516 7.03926 2.34654 6.89662C2.64147 6.75399 2.975 6.71184 3.29615 6.77661C3.6173 6.84138 3.90841 7.00952 4.125 7.25532L7.28156 10.6575L10.6378 3.13032C10.638 3.1272 10.638 3.12407 10.6378 3.12094C10.7578 2.86064 10.9499 2.64018 11.1913 2.48565C11.4327 2.33112 11.7134 2.24899 12 2.24899C12.2866 2.24899 12.5673 2.33112 12.8087 2.48565C13.0501 2.64018 13.2422 2.86064 13.3622 3.12094C13.362 3.12407 13.362 3.1272 13.3622 3.13032L16.7184 10.6575L19.875 7.25532C20.092 7.01134 20.3828 6.84485 20.703 6.78114C21.0233 6.71743 21.3556 6.75997 21.6495 6.9023C21.9434 7.04463 22.1828 7.27899 22.3314 7.56977C22.48 7.86055 22.5297 8.19188 22.4728 8.51344H22.4766Z" fill="black"/>
</svg>
